<svg xmlns="http://www.w3.org/2000/svg" viewBox="0 0 70 70"><path opacity=".2" d="M35 0c1.7 0 3 1.3 3 3v14c0 1.7-1.3 3-3 3s-3-1.3-3-3V3c0-1.7 1.3-3 3-3z"/><path opacity=".25" d="M52.5 4.7c1.4.8 1.9 2.7 1.1 4.1l-7 12.1c-.8 1.4-2.7 1.9-4.1 1.1-1.4-.8-1.9-2.7-1.1-4.1l7-12.1c.8-1.4 2.7-1.9 4.1-1.1z"/><path opacity=".3" d="M65.3 17.5c.8 1.4.3 3.3-1.1 4.1l-12.1 7c-1.4.8-3.3.3-4.1-1.1-.8-1.4-.3-3.3 1.1-4.1l12.1-7c1.4-.8 3.3-.3 4.1 1.1z"/><path opacity=".35" d="M70 35c0 1.7-1.3 3-3 3H53c-1.7 0-3-1.3-3-3s1.3-3 3-3h14c1.7 0 3 1.3 3 3z"/><path opacity=".4" d="M65.3 52.5c-.8 1.4-2.7 1.9-4.1 1.1l-12.1-7c-1.4-.8-1.9-2.7-1.1-4.1.8-1.4 2.7-1.9 4.1-1.1l12.1 7c1.4.8 1.9 2.7 1.1 4.1z"/><path opacity=".45" d="M52.5 65.3c-1.4.8-3.3.3-4.1-1.1l-7-12.1c-.8-1.4-.3-3.3 1.1-4.1 1.4-.8 3.3-.3 4.1 1.1l7 12.1c.8 1.4.3 3.3-1.1 4.1z"/><path opacity=".5" d="M35 50c1.7 0 3 1.3 3 3v14c0 1.7-1.3 3-3 3s-3-1.3-3-3V53c0-1.7 1.3-3 3-3z"/><path opacity=".55" d="M27.5 48c1.4.8 1.9 2.7 1.1 4.1l-7 12.1c-.8 1.4-2.7 1.9-4.1 1.1-1.4-.8-1.9-2.7-1.1-4.1l7-12.1c.8-1.4 2.7-1.9 4.1-1.1z"/><path opacity=".6" d="M20 35c0 1.7-1.3 3-3 3H3c-1.7 0-3-1.3-3-3s1.3-3 3-3h14c1.7 0 3 1.3 3 3z"/><path opacity=".65" d="M22 42.5c.8 1.4.3 3.3-1.1 4.1l-12.1 7c-1.4.8-3.3.3-4.1-1.1-.8-1.4-.3-3.3 1.1-4.1l12.1-7c1.4-.8 3.3-.3 4.1 1.1z"/><path opacity=".7" d="M22 27.5c-.8 1.4-2.7 1.9-4.1 1.1l-12.1-7c-1.4-.8-1.9-2.7-1.1-4.1.8-1.4 2.7-1.9 4.1-1.1l12.1 7c1.4.8 1.9 2.7 1.1 4.1z"/><path opacity=".75" d="M27.5 22c-1.4.8-3.3.3-4.1-1.1l-7-12.1c-.8-1.4-.3-3.3 1.1-4.1 1.4-.8 3.3-.3 4.1 1.1l7 12.1c.8 1.4.3 3.3-1.1 4.1z"/></svg>